<svg width="62" height="56" viewBox="0 0 62 56" fill="none" xmlns="http://www.w3.org/2000/svg">
<path d="M0 8C0 3.58172 3.58172 0 8 0H53.8523C58.2705 0 61.8523 3.58172 61.8523 8V48C61.8523 52.4183 58.2705 56 53.8523 56H8C3.58172 56 0 52.4183 0 48V8Z" fill="#583FBC"/>
<path d="M34.7917 26.25C34.7917 27.1783 34.3844 28.0685 33.6594 28.7249C32.9345 29.3813 31.9512 29.75 30.9259 29.75C29.9007 29.75 28.9174 29.3813 28.1924 28.7249C27.4674 28.0685 27.0602 27.1783 27.0602 26.25C27.0602 25.3217 27.4674 24.4315 28.1924 23.7751C28.9174 23.1187 29.9007 22.75 30.9259 22.75C31.9512 22.75 32.9345 23.1187 33.6594 23.7751C34.3844 24.4315 34.7917 25.3217 34.7917 26.25V26.25Z" stroke="white" stroke-width="1.5" stroke-linecap="round" stroke-linejoin="round"/>
<path d="M40.5903 26.25C40.5903 34.5823 30.9259 39.375 30.9259 39.375C30.9259 39.375 21.2615 34.5823 21.2615 26.25C21.2615 23.9294 22.2797 21.7038 24.0921 20.0628C25.9046 18.4219 28.3628 17.5 30.9259 17.5C33.4891 17.5 35.9473 18.4219 37.7597 20.0628C39.5721 21.7038 40.5903 23.9294 40.5903 26.25V26.25Z" stroke="white" stroke-width="1.5" stroke-linecap="round" stroke-linejoin="round"/>
</svg>
