<svg width="62" height="56" viewBox="0 0 62 56" fill="none" xmlns="http://www.w3.org/2000/svg">
<path d="M0 8C0 3.58172 3.58172 0 8 0H53.8523C58.2705 0 61.8523 3.58172 61.8523 8V48C61.8523 52.4183 58.2705 56 53.8523 56H8C3.58172 56 0 52.4183 0 48V8Z" fill="#583FBC"/>
<path d="M18.3622 21.875C18.3622 31.5397 27.0163 39.375 37.691 39.375H40.5903C41.3593 39.375 42.0967 39.0984 42.6405 38.6062C43.1842 38.1139 43.4897 37.4462 43.4897 36.75V35.1493C43.4897 34.5473 43.0374 34.0223 42.3918 33.8765L36.6924 32.5862C36.1254 32.4578 35.53 32.6503 35.1808 33.0727L33.9309 34.5812C33.5675 35.0198 32.94 35.2135 32.3717 35.0245C30.2621 34.3223 28.3464 33.2134 26.7571 31.7744C25.1677 30.3355 23.9429 28.601 23.1673 26.691C22.9586 26.1765 23.1725 25.6083 23.657 25.2793L25.3231 24.1477C25.7909 23.8315 26.0022 23.2913 25.8605 22.7792L24.4353 17.619C24.3569 17.3351 24.1759 17.0832 23.9212 16.9031C23.6665 16.723 23.3526 16.6251 23.0295 16.625H21.2615C20.4926 16.625 19.7551 16.9016 19.2114 17.3938C18.6676 17.8861 18.3622 18.5538 18.3622 19.25V21.875Z" stroke="white" stroke-width="1.5" stroke-linecap="round" stroke-linejoin="round"/>
</svg>
