<svg width="62" height="56" viewBox="0 0 62 56" fill="none" xmlns="http://www.w3.org/2000/svg">
<path d="M0 8C0 3.58172 3.58172 0 8 0H53.8523C58.2705 0 61.8523 3.58172 61.8523 8V48C61.8523 52.4183 58.2705 56 53.8523 56H8C3.58172 56 0 52.4183 0 48V8Z" fill="#583FBC"/>
<path d="M43.4897 21.875V34.125C43.4897 34.8212 43.1842 35.4889 42.6405 35.9812C42.0967 36.4734 41.3593 36.75 40.5903 36.75H21.2615C20.4926 36.75 19.7551 36.4734 19.2114 35.9812C18.6676 35.4889 18.3622 34.8212 18.3622 34.125V21.875M43.4897 21.875C43.4897 21.1788 43.1842 20.5111 42.6405 20.0188C42.0967 19.5266 41.3593 19.25 40.5903 19.25H21.2615C20.4926 19.25 19.7551 19.5266 19.2114 20.0188C18.6676 20.5111 18.3622 21.1788 18.3622 21.875M43.4897 21.875V22.1585C43.4897 22.6067 43.363 23.0474 43.1217 23.4387C42.8803 23.83 42.5323 24.1588 42.1109 24.3938L32.4465 29.778C31.9893 30.033 31.4629 30.168 30.9259 30.168C30.389 30.168 29.8626 30.033 29.4054 29.778L19.741 24.395C19.3195 24.16 18.9715 23.8311 18.7302 23.4398C18.4888 23.0486 18.3621 22.6078 18.3622 22.1597V21.875" stroke="white" stroke-width="1.5" stroke-linecap="round" stroke-linejoin="round"/>
</svg>
