<svg width="80" height="80" viewBox="0 0 80 80" fill="none" xmlns="http://www.w3.org/2000/svg">
<path d="M66.6667 66.6667V68.6667H68.6667V66.6667H66.6667ZM51.4142 48.5858C50.6332 47.8047 49.3668 47.8047 48.5858 48.5858C47.8047 49.3668 47.8047 50.6332 48.5858 51.4142L51.4142 48.5858ZM64.6667 46.6667V66.6667H68.6667V46.6667H64.6667ZM66.6667 64.6667H46.6667V68.6667H66.6667V64.6667ZM68.0809 65.2525L51.4142 48.5858L48.5858 51.4142L65.2525 68.0809L68.0809 65.2525Z" fill="#583FBC"/>
<path d="M13.3333 66.6667H11.3333V68.6667H13.3333V66.6667ZM31.4142 51.4142C32.1953 50.6332 32.1953 49.3668 31.4142 48.5858C30.6332 47.8047 29.3668 47.8047 28.5858 48.5858L31.4142 51.4142ZM11.3333 46.6667V66.6667H15.3333V46.6667H11.3333ZM13.3333 68.6667H33.3333V64.6667H13.3333V68.6667ZM14.7475 68.0809L31.4142 51.4142L28.5858 48.5858L11.9191 65.2525L14.7475 68.0809Z" fill="#583FBC"/>
<path d="M66.6667 13.3333H68.6667V11.3333H66.6667V13.3333ZM48.5858 28.5858C47.8047 29.3668 47.8047 30.6332 48.5858 31.4142C49.3668 32.1953 50.6332 32.1953 51.4142 31.4142L48.5858 28.5858ZM68.6667 33.3333V13.3333H64.6667V33.3333H68.6667ZM66.6667 11.3333H46.6667V15.3333H66.6667V11.3333ZM65.2525 11.9191L48.5858 28.5858L51.4142 31.4142L68.0809 14.7475L65.2525 11.9191Z" fill="#583FBC"/>
<path d="M13.3333 13.3333V11.3333H11.3333V13.3333H13.3333ZM28.5858 31.4142C29.3668 32.1953 30.6332 32.1953 31.4142 31.4142C32.1953 30.6332 32.1953 29.3668 31.4142 28.5858L28.5858 31.4142ZM15.3333 33.3333V13.3333H11.3333V33.3333H15.3333ZM13.3333 15.3333H33.3333V11.3333H13.3333V15.3333ZM11.9191 14.7475L28.5858 31.4142L31.4142 28.5858L14.7475 11.9191L11.9191 14.7475Z" fill="#583FBC"/>
</svg>
