<svg xmlns="http://www.w3.org/2000/svg" xmlns:xlink="http://www.w3.org/1999/xlink" width="500" zoomAndPan="magnify" viewBox="0 0 375 374.999991" height="500" preserveAspectRatio="xMidYMid meet" version="1.0"><rect x="-37.5" width="450" fill="#ffffff" y="-37.499999" height="449.999989" fill-opacity="1"/><rect x="-37.5" width="450" fill="#ffffff" y="-37.499999" height="449.999989" fill-opacity="1"/><rect x="-37.5" width="450" fill="#ffffff" y="-37.499999" height="449.999989" fill-opacity="1"/><rect x="-37.5" width="450" fill="#ffffff" y="-37.499999" height="449.999989" fill-opacity="1"/><path fill="#583fbc" d="M 112.332031 225.714844 L 98.300781 225.714844 C 99.695312 224.320312 100.617188 222.226562 101.066406 219.433594 C 101.523438 216.644531 101.738281 213.507812 101.707031 210.027344 C 101.675781 206.539062 101.660156 203.050781 101.660156 199.558594 L 101.660156 131.886719 C 101.660156 131.742188 101.726562 131.566406 101.863281 131.355469 C 101.996094 131.148438 102.242188 131.042969 102.597656 131.042969 C 102.878906 131.042969 103.121094 131.132812 103.332031 131.308594 C 103.539062 131.476562 103.679688 131.632812 103.753906 131.777344 C 104.097656 132.269531 104.476562 133.039062 104.894531 134.089844 C 105.308594 135.132812 105.710938 136.160156 106.097656 137.167969 C 106.480469 138.179688 106.777344 138.960938 106.988281 139.511719 C 110.332031 147.949219 114.042969 156.230469 118.128906 164.355469 C 122.210938 172.480469 126.816406 180.277344 131.941406 187.746094 C 137.066406 195.207031 142.816406 202.113281 149.191406 208.464844 C 155.574219 214.808594 162.742188 220.386719 170.691406 225.199219 L 170.691406 225.714844 L 155.113281 225.714844 C 147.925781 218.394531 141.433594 210.496094 135.644531 202.027344 C 129.863281 193.550781 124.773438 184.898438 120.378906 176.074219 C 115.980469 167.253906 112.179688 158.695312 108.972656 150.402344 L 108.972656 199.558594 C 108.972656 203.050781 108.957031 206.539062 108.925781 210.027344 C 108.894531 213.507812 109.101562 216.644531 109.550781 219.433594 C 110.007812 222.226562 110.933594 224.320312 112.332031 225.714844 Z M 150.082031 121.105469 C 156.925781 121.105469 161.945312 122.433594 165.144531 125.089844 C 168.351562 127.738281 169.957031 131.257812 169.957031 135.652344 C 169.957031 140.113281 169.101562 144.292969 167.394531 148.199219 C 165.683594 152.105469 163.398438 155.648438 160.535156 158.824219 C 157.679688 161.992188 154.457031 164.761719 150.863281 167.136719 C 147.277344 169.503906 143.601562 171.433594 139.832031 172.933594 C 136.070312 174.433594 132.445312 175.464844 128.957031 176.027344 L 128.332031 175.292969 C 135.238281 172.992188 141.214844 169.835938 146.269531 165.824219 C 151.320312 161.816406 155.207031 157.246094 157.925781 152.121094 C 160.652344 146.996094 162.019531 141.644531 162.019531 136.058594 C 162.019531 132.433594 160.882812 129.472656 158.613281 127.167969 C 156.339844 124.867188 153.042969 123.714844 148.722656 123.714844 L 126.660156 123.714844 C 116.542969 123.714844 108.769531 124.308594 103.332031 125.496094 C 97.894531 126.683594 94.089844 127.941406 91.925781 129.261719 L 91.925781 121.105469 Z M 150.082031 121.105469 " fill-opacity="1" fill-rule="nonzero"/><path fill="#583fbc" d="M 168.9375 266.15625 C 170.332031 264.761719 171.253906 262.667969 171.703125 259.875 C 172.160156 257.085938 172.367188 253.949219 172.328125 250.46875 C 172.296875 246.980469 172.28125 243.492188 172.28125 240 L 172.28125 187.703125 C 172.28125 184.214844 172.296875 180.726562 172.328125 177.234375 C 172.367188 173.746094 172.160156 170.609375 171.703125 167.828125 C 171.253906 165.039062 170.332031 162.945312 168.9375 161.546875 L 182.953125 161.546875 C 181.554688 162.945312 180.628906 165.039062 180.171875 167.828125 C 179.722656 170.609375 179.515625 173.746094 179.546875 177.234375 C 179.585938 180.726562 179.609375 184.214844 179.609375 187.703125 L 179.609375 235.09375 C 181.210938 230.835938 183.773438 226.734375 187.296875 222.796875 C 190.816406 218.859375 194.929688 215.339844 199.640625 212.234375 C 204.347656 209.132812 209.332031 206.671875 214.59375 204.859375 C 219.863281 203.046875 225.039062 202.140625 230.125 202.140625 C 232.707031 202.140625 235.113281 202.417969 237.34375 202.96875 L 237.34375 187.703125 C 237.34375 184.214844 237.359375 180.726562 237.390625 177.234375 C 237.429688 173.746094 237.222656 170.609375 236.765625 167.828125 C 236.316406 165.039062 235.394531 162.945312 234 161.546875 L 248.015625 161.546875 C 246.617188 162.945312 245.691406 165.039062 245.234375 167.828125 C 244.785156 170.609375 244.578125 173.746094 244.609375 177.234375 C 244.648438 180.726562 244.671875 184.214844 244.671875 187.703125 L 244.671875 240 C 244.671875 243.492188 244.648438 246.980469 244.609375 250.46875 C 244.578125 253.949219 244.785156 257.085938 245.234375 259.875 C 245.691406 262.667969 246.617188 264.761719 248.015625 266.15625 L 234 266.15625 C 235.394531 264.761719 236.316406 262.667969 236.765625 259.875 C 237.222656 257.085938 237.429688 253.949219 237.390625 250.46875 C 237.359375 246.980469 237.34375 243.492188 237.34375 240 L 237.34375 209.765625 C 235.53125 209.214844 233.125 208.9375 230.125 208.9375 C 222.59375 208.9375 215.773438 210.039062 209.671875 212.234375 C 203.578125 214.433594 198.332031 217.367188 193.9375 221.03125 C 189.539062 224.6875 186.101562 228.75 183.625 233.21875 C 181.15625 237.679688 179.78125 242.171875 179.5 246.703125 C 179.5 250.820312 179.65625 254.671875 179.96875 258.265625 C 180.28125 261.851562 181.273438 264.480469 182.953125 266.15625 Z M 168.9375 266.15625 " fill-opacity="1" fill-rule="nonzero"/><path fill="#583fbc" d="M 178.875 139.441406 L 184.71875 139.878906 L 183.453125 141.503906 L 177.90625 141.003906 L 176.953125 142.222656 L 180.6875 145.097656 L 179.5625 146.550781 L 170.65625 139.675781 L 173.34375 136.191406 C 173.730469 135.703125 174.1875 135.355469 174.71875 135.144531 C 175.242188 134.9375 175.789062 134.875 176.359375 134.957031 C 176.933594 135.03125 177.464844 135.253906 177.953125 135.628906 C 178.558594 136.097656 178.9375 136.691406 179.09375 137.410156 C 179.25 138.121094 179.175781 138.796875 178.875 139.441406 Z M 175.6875 141.238281 L 177.125 139.378906 C 177.40625 139.015625 177.527344 138.613281 177.484375 138.175781 C 177.445312 137.738281 177.234375 137.375 176.859375 137.082031 C 176.484375 136.792969 176.078125 136.683594 175.640625 136.753906 C 175.203125 136.828125 174.84375 137.046875 174.5625 137.410156 L 173.125 139.269531 Z M 175.6875 141.238281 " fill-opacity="1" fill-rule="nonzero"/><path fill="#583fbc" d="M 194.28125 132.273438 L 192.25 130.820312 L 188.5 133.476562 L 189.234375 135.882812 L 187.609375 137.039062 L 184.390625 125.523438 L 186.0625 124.335938 L 195.90625 131.132812 Z M 188 131.851562 L 190.875 129.804688 L 186.390625 126.539062 Z M 188 131.851562 " fill-opacity="1" fill-rule="nonzero"/><path fill="#583fbc" d="M 203.753906 117.765625 L 199.410156 119.265625 L 200.425781 122.203125 L 204.191406 120.90625 L 204.753906 122.5 L 200.988281 123.796875 L 202.003906 126.734375 L 206.347656 125.234375 L 206.894531 126.8125 L 200.800781 128.921875 L 197.113281 118.296875 L 203.207031 116.1875 Z M 203.753906 117.765625 " fill-opacity="1" fill-rule="nonzero"/><path fill="#583fbc" d="M 219.132812 115.628906 L 214.539062 115.910156 L 214.726562 119.019531 L 218.695312 118.769531 L 218.789062 120.457031 L 214.820312 120.707031 L 215.023438 123.800781 L 219.617188 123.519531 L 219.710938 125.191406 L 213.273438 125.582031 L 212.585938 114.347656 L 219.023438 113.957031 Z M 219.132812 115.628906 " fill-opacity="1" fill-rule="nonzero"/><path fill="#583fbc" d="M 226.011719 125.605469 L 228.636719 114.667969 L 231.917969 115.464844 C 232.675781 115.644531 233.347656 115.957031 233.933594 116.402344 C 234.527344 116.839844 235.015625 117.371094 235.402344 117.996094 C 235.785156 118.621094 236.035156 119.300781 236.152344 120.027344 C 236.277344 120.757812 236.25 121.496094 236.074219 122.246094 C 235.894531 122.996094 235.582031 123.667969 235.136719 124.261719 C 234.699219 124.855469 234.167969 125.34375 233.542969 125.730469 C 232.917969 126.113281 232.238281 126.363281 231.511719 126.480469 C 230.792969 126.605469 230.050781 126.578125 229.292969 126.402344 Z M 228.183594 124.386719 L 229.683594 124.746094 C 230.378906 124.914062 231.046875 124.898438 231.683594 124.699219 C 232.328125 124.503906 232.878906 124.160156 233.339844 123.667969 C 233.808594 123.167969 234.128906 122.554688 234.308594 121.824219 C 234.484375 121.097656 234.472656 120.402344 234.277344 119.746094 C 234.089844 119.082031 233.753906 118.519531 233.277344 118.058594 C 232.796875 117.601562 232.207031 117.289062 231.511719 117.121094 L 230.011719 116.761719 Z M 228.183594 124.386719 " fill-opacity="1" fill-rule="nonzero"/><path fill="#583fbc" d="M 253.117188 139.558594 L 254.101562 137.246094 L 250.695312 134.167969 L 248.507812 135.402344 L 247.039062 134.074219 L 257.585938 128.449219 L 259.101562 129.824219 L 254.585938 140.886719 Z M 252.195312 133.324219 L 254.820312 135.699219 L 257.023438 130.621094 Z M 252.195312 133.324219 " fill-opacity="1" fill-rule="nonzero"/><path fill="#583fbc" d="M 260.183594 145.828125 L 262.308594 149.171875 L 260.871094 150.09375 L 257.746094 145.203125 L 267.230469 139.15625 L 268.230469 140.703125 Z M 260.183594 145.828125 " fill-opacity="1" fill-rule="nonzero"/><path fill="#583fbc" d="M 276.101562 158.847656 L 276.601562 160.613281 L 265.789062 163.738281 L 265.289062 161.972656 L 269.882812 160.644531 L 268.382812 155.472656 L 263.789062 156.800781 L 263.273438 155.035156 L 274.085938 151.910156 L 274.601562 153.675781 L 270.023438 154.988281 L 271.523438 160.160156 Z M 276.101562 158.847656 " fill-opacity="1" fill-rule="nonzero"/><path fill="#583fbc" d="M 275.910156 176.992188 L 275.988281 172.382812 L 272.878906 172.335938 L 272.816406 176.320312 L 271.128906 176.289062 L 271.191406 172.304688 L 268.082031 172.242188 L 268.003906 176.851562 L 266.332031 176.820312 L 266.441406 170.367188 L 277.691406 170.570312 L 277.582031 177.023438 Z M 275.910156 176.992188 " fill-opacity="1" fill-rule="nonzero"/><path fill="#583fbc" d="M 273.542969 194.277344 L 272.964844 196.011719 L 262.308594 192.402344 L 262.902344 190.652344 L 272.824219 187.464844 L 264.902344 184.777344 L 265.496094 183.027344 L 276.152344 186.636719 L 275.558594 188.386719 L 265.636719 191.605469 Z M 273.542969 194.277344 " fill-opacity="1" fill-rule="nonzero"/><path fill="#583fbc" d="M 259.160156 198.027344 L 268.066406 204.917969 L 266.003906 207.589844 C 265.523438 208.214844 264.957031 208.699219 264.300781 209.042969 C 263.652344 209.394531 262.972656 209.621094 262.253906 209.714844 C 261.535156 209.816406 260.808594 209.777344 260.082031 209.589844 C 259.363281 209.402344 258.703125 209.066406 258.097656 208.589844 C 257.484375 208.121094 257 207.5625 256.644531 206.917969 C 256.292969 206.269531 256.066406 205.582031 255.972656 204.855469 C 255.871094 204.125 255.910156 203.40625 256.097656 202.699219 C 256.285156 201.988281 256.621094 201.324219 257.097656 200.699219 Z M 259.378906 200.527344 L 258.441406 201.746094 C 257.996094 202.316406 257.734375 202.933594 257.660156 203.589844 C 257.578125 204.246094 257.667969 204.886719 257.925781 205.511719 C 258.1875 206.144531 258.613281 206.691406 259.207031 207.152344 C 259.800781 207.609375 260.433594 207.886719 261.113281 207.980469 C 261.789062 208.082031 262.433594 208.011719 263.050781 207.761719 C 263.664062 207.519531 264.195312 207.113281 264.644531 206.542969 L 265.582031 205.324219 Z M 259.378906 200.527344 " fill-opacity="1" fill-rule="nonzero"/><path fill="#583fbc" d="M 248.671875 223.25 L 248.5 216.15625 L 245.453125 211.78125 L 246.953125 210.734375 L 249.96875 215.0625 L 256.625 217.703125 L 254.859375 218.9375 L 250.21875 217.015625 L 250.40625 222.046875 Z M 248.671875 223.25 " fill-opacity="1" fill-rule="nonzero"/></svg>