<svg xmlns="http://www.w3.org/2000/svg" xmlns:xlink="http://www.w3.org/1999/xlink" width="500" zoomAndPan="magnify" viewBox="0 0 375 374.999991" height="500" preserveAspectRatio="xMidYMid meet" version="1.0"><defs><g/></defs><rect x="-37.5" width="450" fill="#ffffff" y="-37.499999" height="449.999989" fill-opacity="1"/><rect x="-37.5" width="450" fill="#ffffff" y="-37.499999" height="449.999989" fill-opacity="1"/><g fill="#222222" fill-opacity="1"><g transform="translate(91.926602, 225.713138)"><g><path d="M 20.40625 0 L 6.375 0 C 7.769531 -1.394531 8.691406 -3.488281 9.140625 -6.28125 C 9.597656 -9.070312 9.8125 -12.207031 9.78125 -15.6875 C 9.75 -19.175781 9.734375 -22.664062 9.734375 -26.15625 L 9.734375 -93.828125 C 9.734375 -93.972656 9.800781 -94.148438 9.9375 -94.359375 C 10.070312 -94.566406 10.316406 -94.671875 10.671875 -94.671875 C 10.953125 -94.671875 11.195312 -94.582031 11.40625 -94.40625 C 11.613281 -94.238281 11.753906 -94.082031 11.828125 -93.9375 C 12.171875 -93.445312 12.550781 -92.675781 12.96875 -91.625 C 13.382812 -90.582031 13.785156 -89.554688 14.171875 -88.546875 C 14.554688 -87.535156 14.851562 -86.753906 15.0625 -86.203125 C 18.40625 -77.765625 22.117188 -69.484375 26.203125 -61.359375 C 30.285156 -53.234375 34.890625 -45.4375 40.015625 -37.96875 C 45.140625 -30.507812 50.890625 -23.601562 57.265625 -17.25 C 63.648438 -10.90625 70.816406 -5.328125 78.765625 -0.515625 L 78.765625 0 L 63.1875 0 C 56 -7.320312 49.507812 -15.21875 43.71875 -23.6875 C 37.9375 -32.164062 32.847656 -40.816406 28.453125 -49.640625 C 24.054688 -58.460938 20.253906 -67.019531 17.046875 -75.3125 L 17.046875 -26.15625 C 17.046875 -22.664062 17.03125 -19.175781 17 -15.6875 C 16.96875 -12.207031 17.175781 -9.070312 17.625 -6.28125 C 18.082031 -3.488281 19.007812 -1.394531 20.40625 0 Z M 58.15625 -104.609375 C 65 -104.609375 70.019531 -103.28125 73.21875 -100.625 C 76.425781 -97.976562 78.03125 -94.457031 78.03125 -90.0625 C 78.03125 -85.601562 77.175781 -81.421875 75.46875 -77.515625 C 73.757812 -73.609375 71.472656 -70.066406 68.609375 -66.890625 C 65.753906 -63.722656 62.53125 -60.953125 58.9375 -58.578125 C 55.351562 -56.210938 51.675781 -54.28125 47.90625 -52.78125 C 44.144531 -51.28125 40.519531 -50.25 37.03125 -49.6875 L 36.40625 -50.421875 C 43.3125 -52.722656 49.289062 -55.878906 54.34375 -59.890625 C 59.394531 -63.898438 63.28125 -68.46875 66 -73.59375 C 68.726562 -78.71875 70.09375 -84.070312 70.09375 -89.65625 C 70.09375 -93.28125 68.957031 -96.242188 66.6875 -98.546875 C 64.414062 -100.847656 61.117188 -102 56.796875 -102 L 34.734375 -102 C 24.617188 -102 16.84375 -101.40625 11.40625 -100.21875 C 5.96875 -99.03125 2.164062 -97.773438 0 -96.453125 L 0 -104.609375 Z M 58.15625 -104.609375 "/></g></g></g><g fill="#222222" fill-opacity="1"><g transform="translate(164.751073, 266.156877)"><g><path d="M 4.1875 0 C 5.582031 -1.394531 6.503906 -3.488281 6.953125 -6.28125 C 7.410156 -9.070312 7.617188 -12.207031 7.578125 -15.6875 C 7.546875 -19.175781 7.53125 -22.664062 7.53125 -26.15625 L 7.53125 -78.453125 C 7.53125 -81.941406 7.546875 -85.429688 7.578125 -88.921875 C 7.617188 -92.410156 7.410156 -95.546875 6.953125 -98.328125 C 6.503906 -101.117188 5.582031 -103.210938 4.1875 -104.609375 L 18.203125 -104.609375 C 16.804688 -103.210938 15.878906 -101.117188 15.421875 -98.328125 C 14.972656 -95.546875 14.765625 -92.410156 14.796875 -88.921875 C 14.835938 -85.429688 14.859375 -81.941406 14.859375 -78.453125 L 14.859375 -31.0625 C 16.460938 -35.320312 19.023438 -39.421875 22.546875 -43.359375 C 26.066406 -47.296875 30.179688 -50.816406 34.890625 -53.921875 C 39.597656 -57.023438 44.582031 -59.484375 49.84375 -61.296875 C 55.113281 -63.109375 60.289062 -64.015625 65.375 -64.015625 C 67.957031 -64.015625 70.363281 -63.738281 72.59375 -63.1875 L 72.59375 -78.453125 C 72.59375 -81.941406 72.609375 -85.429688 72.640625 -88.921875 C 72.679688 -92.410156 72.472656 -95.546875 72.015625 -98.328125 C 71.566406 -101.117188 70.644531 -103.210938 69.25 -104.609375 L 83.265625 -104.609375 C 81.867188 -103.210938 80.941406 -101.117188 80.484375 -98.328125 C 80.035156 -95.546875 79.828125 -92.410156 79.859375 -88.921875 C 79.898438 -85.429688 79.921875 -81.941406 79.921875 -78.453125 L 79.921875 -26.15625 C 79.921875 -22.664062 79.898438 -19.175781 79.859375 -15.6875 C 79.828125 -12.207031 80.035156 -9.070312 80.484375 -6.28125 C 80.941406 -3.488281 81.867188 -1.394531 83.265625 0 L 69.25 0 C 70.644531 -1.394531 71.566406 -3.488281 72.015625 -6.28125 C 72.472656 -9.070312 72.679688 -12.207031 72.640625 -15.6875 C 72.609375 -19.175781 72.59375 -22.664062 72.59375 -26.15625 L 72.59375 -56.390625 C 70.78125 -56.941406 68.375 -57.21875 65.375 -57.21875 C 57.84375 -57.21875 51.023438 -56.117188 44.921875 -53.921875 C 38.828125 -51.722656 33.582031 -48.789062 29.1875 -45.125 C 24.789062 -41.46875 21.351562 -37.40625 18.875 -32.9375 C 16.40625 -28.476562 15.03125 -23.984375 14.75 -19.453125 C 14.75 -15.335938 14.90625 -11.484375 15.21875 -7.890625 C 15.53125 -4.304688 16.523438 -1.675781 18.203125 0 Z M 4.1875 0 "/></g></g></g><g fill="#222222" fill-opacity="1"><g transform="translate(178.811892, 147.536505)"><g><path d="M 0.0625 -8.09375 L 5.90625 -7.65625 L 4.640625 -6.03125 L -0.90625 -6.53125 L -1.859375 -5.3125 L 1.875 -2.4375 L 0.75 -0.984375 L -8.15625 -7.859375 L -5.46875 -11.34375 C -5.082031 -11.832031 -4.625 -12.179688 -4.09375 -12.390625 C -3.570312 -12.597656 -3.023438 -12.660156 -2.453125 -12.578125 C -1.878906 -12.503906 -1.347656 -12.28125 -0.859375 -11.90625 C -0.253906 -11.4375 0.125 -10.84375 0.28125 -10.125 C 0.4375 -9.414062 0.363281 -8.738281 0.0625 -8.09375 Z M -3.125 -6.296875 L -1.6875 -8.15625 C -1.40625 -8.519531 -1.285156 -8.921875 -1.328125 -9.359375 C -1.367188 -9.796875 -1.578125 -10.160156 -1.953125 -10.453125 C -2.328125 -10.742188 -2.734375 -10.851562 -3.171875 -10.78125 C -3.609375 -10.707031 -3.96875 -10.488281 -4.25 -10.125 L -5.6875 -8.265625 Z M -3.125 -6.296875 "/></g></g></g><g fill="#222222" fill-opacity="1"><g transform="translate(187.719473, 136.962097)"><g><path d="M 6.5625 -4.6875 L 4.53125 -6.140625 L 0.78125 -3.484375 L 1.515625 -1.078125 L -0.109375 0.078125 L -3.328125 -11.4375 L -1.65625 -12.625 L 8.1875 -5.828125 Z M 0.28125 -5.109375 L 3.15625 -7.15625 L -1.328125 -10.421875 Z M 0.28125 -5.109375 "/></g></g></g><g fill="#222222" fill-opacity="1"><g transform="translate(199.549605, 129.357925)"><g><path d="M 4.203125 -11.59375 L -0.140625 -10.09375 L 0.875 -7.15625 L 4.640625 -8.453125 L 5.203125 -6.859375 L 1.4375 -5.5625 L 2.453125 -2.625 L 6.796875 -4.125 L 7.34375 -2.546875 L 1.25 -0.4375 L -2.4375 -11.0625 L 3.65625 -13.171875 Z M 4.203125 -11.59375 "/></g></g></g><g fill="#222222" fill-opacity="1"><g transform="translate(211.946419, 125.661663)"><g><path d="M 7.1875 -10.03125 L 2.59375 -9.75 L 2.78125 -6.640625 L 6.75 -6.890625 L 6.84375 -5.203125 L 2.875 -4.953125 L 3.078125 -1.859375 L 7.671875 -2.140625 L 7.765625 -0.46875 L 1.328125 -0.078125 L 0.640625 -11.3125 L 7.078125 -11.703125 Z M 7.1875 -10.03125 "/></g></g></g><g fill="#222222" fill-opacity="1"><g transform="translate(224.807274, 125.323369)"><g><path d="M 1.203125 0.28125 L 3.828125 -10.65625 L 7.109375 -9.859375 C 7.867188 -9.679688 8.539062 -9.367188 9.125 -8.921875 C 9.71875 -8.484375 10.207031 -7.953125 10.59375 -7.328125 C 10.976562 -6.703125 11.226562 -6.023438 11.34375 -5.296875 C 11.46875 -4.566406 11.441406 -3.828125 11.265625 -3.078125 C 11.085938 -2.328125 10.773438 -1.65625 10.328125 -1.0625 C 9.890625 -0.46875 9.359375 0.0195312 8.734375 0.40625 C 8.109375 0.789062 7.429688 1.039062 6.703125 1.15625 C 5.984375 1.28125 5.242188 1.253906 4.484375 1.078125 Z M 3.375 -0.9375 L 4.875 -0.578125 C 5.570312 -0.410156 6.238281 -0.425781 6.875 -0.625 C 7.519531 -0.820312 8.070312 -1.164062 8.53125 -1.65625 C 9 -2.15625 9.320312 -2.769531 9.5 -3.5 C 9.675781 -4.226562 9.664062 -4.921875 9.46875 -5.578125 C 9.28125 -6.242188 8.945312 -6.804688 8.46875 -7.265625 C 7.988281 -7.722656 7.398438 -8.035156 6.703125 -8.203125 L 5.203125 -8.5625 Z M 3.375 -0.9375 "/></g></g></g><g fill="#222222" fill-opacity="1"><g transform="translate(239.417875, 129.811034)"><g/></g></g><g fill="#222222" fill-opacity="1"><g transform="translate(247.131719, 134.153468)"><g><path d="M 5.984375 5.40625 L 6.96875 3.09375 L 3.5625 0.015625 L 1.375 1.25 L -0.09375 -0.078125 L 10.453125 -5.703125 L 11.96875 -4.328125 L 7.453125 6.734375 Z M 5.0625 -0.828125 L 7.6875 1.546875 L 9.890625 -3.53125 Z M 5.0625 -0.828125 "/></g></g></g><g fill="#222222" fill-opacity="1"><g transform="translate(257.090899, 144.158472)"><g><path d="M 3.09375 1.671875 L 5.21875 5.015625 L 3.78125 5.9375 L 0.65625 1.046875 L 10.140625 -5 L 11.140625 -3.453125 Z M 3.09375 1.671875 "/></g></g></g><g fill="#222222" fill-opacity="1"><g transform="translate(262.927695, 153.848695)"><g><path d="M 13.171875 5 L 13.671875 6.765625 L 2.859375 9.890625 L 2.359375 8.125 L 6.953125 6.796875 L 5.453125 1.625 L 0.859375 2.953125 L 0.34375 1.1875 L 11.15625 -1.9375 L 11.671875 -0.171875 L 7.09375 1.140625 L 8.59375 6.3125 Z M 13.171875 5 "/></g></g></g><g fill="#222222" fill-opacity="1"><g transform="translate(266.471154, 169.039865)"><g><path d="M 9.4375 7.953125 L 9.515625 3.34375 L 6.40625 3.296875 L 6.34375 7.28125 L 4.65625 7.25 L 4.71875 3.265625 L 1.609375 3.203125 L 1.53125 7.8125 L -0.140625 7.78125 L -0.03125 1.328125 L 11.21875 1.53125 L 11.109375 7.984375 Z M 9.4375 7.953125 "/></g></g></g><g fill="#222222" fill-opacity="1"><g transform="translate(265.884728, 181.855605)"><g><path d="M 7.65625 12.421875 L 7.078125 14.15625 L -3.578125 10.546875 L -2.984375 8.796875 L 6.9375 5.609375 L -0.984375 2.921875 L -0.390625 1.171875 L 10.265625 4.78125 L 9.671875 6.53125 L -0.25 9.75 Z M 7.65625 12.421875 "/></g></g></g><g fill="#222222" fill-opacity="1"><g transform="translate(259.909172, 197.059187)"><g><path d="M -0.75 0.96875 L 8.15625 7.859375 L 6.09375 10.53125 C 5.613281 11.15625 5.046875 11.640625 4.390625 11.984375 C 3.742188 12.335938 3.0625 12.5625 2.34375 12.65625 C 1.625 12.757812 0.898438 12.71875 0.171875 12.53125 C -0.546875 12.34375 -1.207031 12.007812 -1.8125 11.53125 C -2.425781 11.0625 -2.910156 10.503906 -3.265625 9.859375 C -3.617188 9.210938 -3.84375 8.523438 -3.9375 7.796875 C -4.039062 7.066406 -4 6.347656 -3.8125 5.640625 C -3.625 4.929688 -3.289062 4.265625 -2.8125 3.640625 Z M -0.53125 3.46875 L -1.46875 4.6875 C -1.914062 5.257812 -2.175781 5.875 -2.25 6.53125 C -2.332031 7.1875 -2.242188 7.828125 -1.984375 8.453125 C -1.722656 9.085938 -1.296875 9.632812 -0.703125 10.09375 C -0.109375 10.550781 0.523438 10.828125 1.203125 10.921875 C 1.878906 11.023438 2.523438 10.953125 3.140625 10.703125 C 3.753906 10.460938 4.285156 10.054688 4.734375 9.484375 L 5.671875 8.265625 Z M -0.53125 3.46875 "/></g></g></g><g fill="#222222" fill-opacity="1"><g transform="translate(250.094984, 208.547164)"><g><path d="M -1.421875 14.703125 L -1.59375 7.609375 L -4.640625 3.234375 L -3.140625 2.1875 L -0.125 6.515625 L 6.53125 9.15625 L 4.765625 10.390625 L 0.125 8.46875 L 0.3125 13.5 Z M -1.421875 14.703125 "/></g></g></g></svg>